<svg height="100%" width="100%" id="svg" viewBox="0 0 1440 700" xmlns="http://www.w3.org/2000/svg" class="transition duration-300 ease-in-out delay-150"><defs><linearGradient id="gradient"><stop offset="5%" stop-color="#002bdc66"></stop><stop offset="95%" stop-color="#32ded466"></stop></linearGradient></defs><path d="M 0,700 C 0,700 0,175 0,175 C 108.63157894736847,173.7177033492823 217.26315789473693,172.43540669856458 323,156 C 428.73684210526307,139.56459330143542 531.5789473684209,107.97607655502392 613,119 C 694.4210526315791,130.02392344497608 754.421052631579,183.66028708133973 848,201 C 941.578947368421,218.33971291866027 1068.7368421052633,199.3827751196172 1173,189 C 1277.2631578947367,178.6172248803828 1358.6315789473683,176.80861244019138 1440,175 C 1440,175 1440,700 1440,700 Z" stroke="none" stroke-width="0" fill="url(#gradient)" class="transition-all duration-300 ease-in-out delay-150"></path><defs><linearGradient id="gradient"><stop offset="5%" stop-color="#002bdc88"></stop><stop offset="95%" stop-color="#32ded488"></stop></linearGradient></defs><path d="M 0,700 C 0,700 0,350 0,350 C 81.81818181818178,333.6267942583732 163.63636363636357,317.2535885167464 276,305 C 388.36363636363643,292.7464114832536 531.2727272727274,284.6124401913876 621,305 C 710.7272727272726,325.3875598086124 747.2727272727273,374.29665071770336 818,371 C 888.7272727272727,367.70334928229664 993.6363636363637,312.20095693779905 1103,300 C 1212.3636363636363,287.79904306220095 1326.181818181818,318.8995215311005 1440,350 C 1440,350 1440,700 1440,700 Z" stroke="none" stroke-width="0" fill="url(#gradient)" class="transition-all duration-300 ease-in-out delay-150"></path><defs><linearGradient id="gradient"><stop offset="5%" stop-color="#002bdcff"></stop><stop offset="95%" stop-color="#32ded4ff"></stop></linearGradient></defs><path d="M 0,700 C 0,700 0,525 0,525 C 80.31578947368422,560.2248803827752 160.63157894736844,595.4497607655502 263,584 C 365.36842105263156,572.5502392344498 489.7894736842105,514.4258373205741 600,512 C 710.2105263157895,509.5741626794259 806.2105263157894,562.8468899521532 905,564 C 1003.7894736842106,565.1531100478468 1105.3684210526314,514.1866028708134 1195,499 C 1284.6315789473686,483.8133971291866 1362.3157894736842,504.4066985645933 1440,525 C 1440,525 1440,700 1440,700 Z" stroke="none" stroke-width="0" fill="url(#gradient)" class="transition-all duration-300 ease-in-out delay-150"></path></svg>